<svg width="400" height="300" xmlns="http://www.w3.org/2000/svg">
    <!-- Created with SVG Editor - http://github.com/mzalive/SVG Editor/ -->
    <g>
        <title>background</title>
        <rect fill="#fff" id="canvas_background" height="402" width="582" y="-1" x="-1" />
    </g>
    <g>
        <title>Layer 1</title>
        <path id="svg_1"
            d="m32.89999,280.249993c11,-219.999997 301.999995,-223.999997 301.10001,-224.249993c0.899986,0.249996 -303.10001,184.249994 -306.10001,140.249994c-3,-43.999999 44.999999,-122.999998 44.10001,-123.249994c0.89999,0.249996 104.899988,-35.750003 104,-36c0.899988,0.249997 1.899988,38.249996 33.899988,43.249996c32,5 4,-26 32,-32c28,-6 41.999999,1 43.999999,-18c2,-19 49.999999,-12 34.999999,16c-15,28 46.999999,85.999999 46.100014,85.750004c0.899985,0.249995 11.899985,80.249994 11,80"
            stroke-width="1.5" stroke="#000" fill="#fff" />
    </g>
</svg>